<?xml version="1.0" encoding="UTF-8" standalone="no"?>
<!-- Created with Inkscape (http://www.inkscape.org/) -->

<svg
   xmlns:dc="http://purl.org/dc/elements/1.1/"
   xmlns:cc="http://creativecommons.org/ns#"
   xmlns:rdf="http://www.w3.org/1999/02/22-rdf-syntax-ns#"
   xmlns:svg="http://www.w3.org/2000/svg"
   xmlns="http://www.w3.org/2000/svg"
   xmlns:sodipodi="http://sodipodi.sourceforge.net/DTD/sodipodi-0.dtd"
   xmlns:inkscape="http://www.inkscape.org/namespaces/inkscape"
   version="1.1"
   id="svg61"
   width="742.35675"
   height="173.17122"
   viewBox="0 0 742.35678 173.17122"
   sodipodi:docname="HackVT-logo.svg"
   inkscape:version="0.92.1 r15371">
  <metadata
     id="metadata67">
    <rdf:RDF>
      <cc:Work
         rdf:about="">
        <dc:format>image/svg+xml</dc:format>
        <dc:type
           rdf:resource="http://purl.org/dc/dcmitype/StillImage" />
        <dc:title></dc:title>
      </cc:Work>
    </rdf:RDF>
  </metadata>
  <defs
     id="defs65" />
  <sodipodi:namedview
     pagecolor="#ffffff"
     bordercolor="#666666"
     borderopacity="1"
     objecttolerance="10"
     gridtolerance="10"
     guidetolerance="10"
     inkscape:pageopacity="0"
     inkscape:pageshadow="2"
     inkscape:window-width="1855"
     inkscape:window-height="1056"
     id="namedview63"
     showgrid="false"
     fit-margin-top="0"
     fit-margin-left="0"
     fit-margin-right="0"
     fit-margin-bottom="0"
     inkscape:pagecheckerboard="true"
     inkscape:zoom="2"
     inkscape:cx="578.62426"
     inkscape:cy="22.649525"
     inkscape:window-x="65"
     inkscape:window-y="24"
     inkscape:window-maximized="1"
     inkscape:current-layer="svg61" />
  <path
     style="fill:#ffffff;fill-opacity:1;stroke-width:1.33333325"
     d="m 402.97808,170.73794 c 5.53923,-1.41669 13.86367,-4.49017 18.49875,-6.82996 9.31969,-4.70456 23.41649,-17.4144 27.28781,-24.603 3.15076,-5.85062 2.81799,-6.22124 -14.94925,-16.64896 -13.69003,-8.03478 -16.64284,-8.47042 -18.46653,-2.7245 -1.4401,4.53733 -12.67795,13.27766 -19.78559,15.38841 -14.33329,4.25653 -27.0522,1.29855 -36.94225,-8.59151 -23.53698,-23.53697 -19.66142,-71.408124 6.97572,-86.164684 6.30296,-3.49175 8.29941,-3.91047 18.40326,-3.85973 8.27219,0.0415 12.59382,0.71208 16,2.4826 5.88234,3.0576 12.98247,9.68954 15.48134,14.46049 1.05626,2.01667 2.84322,3.66667 3.97101,3.66667 3.15565,0 28.54765,-18.51846 28.54765,-20.81988 0,-3.13742 -7.27352,-12.98068 -13.90561,-18.81848 C 420.75958,5.9376155 404.0125,0.03486552 383.9468,1.3551993e-4 345.27862,-0.06676448 314.96775,24.639406 303.81661,65.313766 c -2.86527,10.4512 -2.18664,32.53509 1.35064,43.953004 9.84981,31.79395 31.58725,54.55811 59.19877,61.99493 10.1501,2.7338 26.75585,2.50855 38.61206,-0.52376 z M 39.68919,136.98042 40.04503,102.64709 h 33.31082 33.31083 v 34.70651 l -0.31565,35.65343 34.6313,-0.27287 0.0983,-5.0049 c 0.28977,-2.50917 1.28976,-3.70914 3.33333,-4 2.74192,-0.39025 2.94246,-1.19693 3.29926,-13.27217 0.3394,-11.4866 0.65909,-12.92968 3,-13.54184 2.4064,-0.62929 2.6201,-1.89431 2.6201,-15.50967 0,-14.58594 0.0536,-14.84489 3.33334,-16.09182 2.69145,-1.0233 3.33333,-2.17867 3.33333,-5.999994 0,-3.82134 0.64188,-4.97671 3.33333,-6 3.1037,-1.18002 3.33334,-1.89083 3.33334,-10.3175 0,-8.10649 0.31281,-9.1874 3,-10.36633 2.6864,-1.17859 3.06969,-2.50088 3.66666,-12.64951 l 0.66667,-11.33333 5.48349,-0.40105 c 4.31588,-0.31564 5.80034,-1.0964 6.97143,-3.66667 1.14416,-2.51115 2.51105,-3.26561 5.91649,-3.26561 6.82614,0 7.62859,-1.71458 7.62859,-16.29967 0,-12.74613 0.09,-13.13387 3.33333,-14.367 4.12566,-1.5685705 4.74381,-7.0779505 0.91214,-9.1286105 l -95.9788,0.0619 c -1.15481,1.15482 -1.6,10.4296305 -1.6,33.3333405 v 31.73333 H 73.33333 39.99999 v -31.95309 c 0,-30.2264705 0.10397,-33.1755205 0.10397,-33.1755205 L 0.33742,1.8960355 C 0.33742,1.8960355 0,23.516186 0,86.691496 0,132.62261 0.13482,173.0204 0.13482,173.0204 l 39.35633,-0.28628 z m 273.10475,35.19183 c 0,0 -14.08279,-42.20849 -30.33649,-87.858484 L 252.90522,1.3137655 h -19.78593 c -17.95799,0 -20.0934,0.12381 -20.0934,0.12381 0,0 7.52016,25.5156405 16.31565,51.1490405 8.79549,25.6334 15.9918,47.0834 15.9918,47.666664 0,0.58326 -13.47889,1.06048 -29.95309,1.06048 -27.18295,0 -30.67376,0.59728 -30.67376,0.59728 l -5.41494,32.74837 c 0,0 5.87706,-0.0123 39.8554,-0.0123 h 39.23063 l 0.824,3.28308 c 0.45321,1.80569 3.28068,10.20569 6.28328,18.66667 l 5.45928,15.38358 h 20.52793 z M 505.33333,135.6801 506,100.04645 l 27.18781,35.96699 27.18781,35.96698 h 23.30103 c 21.53675,0 26.04507,0.22993 26.04507,0.22993 0,0 -17.96019,-23.19659 -35.05506,-45.56326 -17.09486,-22.36667 -31.34224,-41.655644 -31.66084,-42.864404 -0.35809,-1.35862 10.22695,-16.5873 27.72256,-39.88444 15.56602,-20.72768 30.64171,-40.8403905 30.99392,-42.1872805 0,0 -2.74004,-0.3972 -24.09233,-0.3972 H 554.94893 L 530.47447,32.752186 506,64.190616 505.33333,33.085526 504.66667,1.9804255 H 485.33333 466 l -0.34565,83.3333405 c -0.19012,45.833324 -0.0527,84.099874 0.3056,85.036764 0.49582,1.29691 5.19236,1.61512 19.67898,1.33333 l 19.02774,-0.3701 z M 664.99621,60.809646 c 0,0 20.69185,-58.1253905 19.95242,-59.3218005 l -14.50059,0.21504 C 665.14231,16.676496 661.72751,28.555256 656.58734,44.612586 651.65569,30.401866 641.16105,1.0334855 641.16105,1.0334855 l -13.28524,0.0997 20.40166,59.8472405 z m 60.39814,-46.03688 16.76346,0.15461 c 0.27536,-4.30374 0.21572,-9.2305805 0.11256,-13.5361705 l -24.48307,-0.25134 -22.92744,0.20928 0.13422,13.4557905 15.67264,-0.15783 0.16125,46.85692 14.78569,0.003 z"
     id="path143"
     inkscape:connector-curvature="0"
     sodipodi:nodetypes="cccssssccccsssssssccccccccccscscscscccccsscccscccsccsccccscscsssccsccscccccccscscscscccccccscccccccccccccccccccccc" />
</svg>
