<?xml version="1.0" encoding="UTF-8" standalone="no"?>
<!-- Created with Inkscape (http://www.inkscape.org/) -->

<svg
   xmlns:dc="http://purl.org/dc/elements/1.1/"
   xmlns:cc="http://creativecommons.org/ns#"
   xmlns:rdf="http://www.w3.org/1999/02/22-rdf-syntax-ns#"
   xmlns:svg="http://www.w3.org/2000/svg"
   xmlns="http://www.w3.org/2000/svg"
   xmlns:sodipodi="http://sodipodi.sourceforge.net/DTD/sodipodi-0.dtd"
   xmlns:inkscape="http://www.inkscape.org/namespaces/inkscape"
   id="svg3390"
   version="1.1"
   inkscape:version="0.91 r13725"
   width="19.998529"
   height="25.944433"
   viewBox="0 0 19.998529 25.944433"
   sodipodi:docname="java-logo.svg">
  <metadata
     id="metadata3396">
    <rdf:RDF>
      <cc:Work
         rdf:about="">
        <dc:format>image/svg+xml</dc:format>
        <dc:type
           rdf:resource="http://purl.org/dc/dcmitype/StillImage" />
        <dc:title></dc:title>
      </cc:Work>
    </rdf:RDF>
  </metadata>
  <defs
     id="defs3394" />
  <sodipodi:namedview
     pagecolor="#ffffff"
     bordercolor="#666666"
     borderopacity="1"
     objecttolerance="10"
     gridtolerance="10"
     guidetolerance="10"
     inkscape:pageopacity="0"
     inkscape:pageshadow="2"
     inkscape:window-width="1145"
     inkscape:window-height="731"
     id="namedview3392"
     showgrid="false"
     fit-margin-top="0"
     fit-margin-left="0"
     fit-margin-right="0"
     fit-margin-bottom="0"
     inkscape:showpageshadow="false"
     inkscape:zoom="13.611806"
     inkscape:cx="27.511236"
     inkscape:cy="8.709899"
     inkscape:window-x="0"
     inkscape:window-y="0"
     inkscape:window-maximized="0"
     inkscape:current-layer="svg3390" />
  <path
     style="fill:#000000"
     d="m 10.612925,25.940632 c -2.3292019,-0.09109 -4.4418179,-0.468748 -6.3654569,-1.137896 -0.351457,-0.122256 -0.9405,-0.348904 -0.90943,-0.349924 0.0083,-2.8e-4 0.174812,0.03487 0.37,0.07809 1.386691,0.30707 2.878009,0.523926 4.334887,0.630348 1.409495,0.10296 3.1194999,0.09196 4.4315649,-0.02851 2.219659,-0.203806 4.138339,-0.68951 5.648435,-1.429874 0.720494,-0.353242 1.219714,-0.681 1.751532,-1.149952 l 0.124072,-0.109406 -0.01492,0.139406 c -0.04876,0.455752 -0.28704,0.89426 -0.695946,1.280746 -1.1815,1.116722 -3.578474,1.85696 -6.634742,2.048954 -0.33486,0.02104 -1.728976,0.04019 -2.04,0.02802 z M 7.8029251,24.060652 C 5.6024031,23.989442 3.8678461,23.7632 2.4586061,23.36358 1.2049801,23.008088 0.38891707,22.519904 0.11366807,21.960794 c -0.09203,-0.186938 -0.132595,-0.404696 -0.105293,-0.565216 0.106075,-0.623648 0.962047,-1.15356 2.12722503,-1.316916 0.314593,-0.04411 1.005045,-0.04463 1.337325,-0.001 l 0.23,0.03019 0.44,0.25477 c 0.242,0.140122 0.447474,0.261558 0.456609,0.269854 0.0091,0.0083 -0.02237,0.0075 -0.07,-0.0017 -0.04763,-0.0093 -0.199109,-0.02292 -0.336609,-0.03037 -0.668446,-0.03621 -1.400218,0.16937 -1.711107,0.48072 -0.335626,0.33612 -0.06208,0.732068 0.711107,1.029318 1.328574,0.510762 3.731188,0.78799 6.55,0.755778 2.2475319,-0.02568 4.0635069,-0.240708 5.4399999,-0.644132 1.243618,-0.364482 1.929502,-0.853886 2.029764,-1.448312 0.02572,-0.152466 0.0037,-0.360346 -0.05237,-0.494552 -0.01536,-0.03676 -0.02106,-0.06672 -0.01266,-0.06656 0.0084,2e-4 0.0826,0.03698 0.16489,0.08183 0.478452,0.260778 0.71702,0.520328 0.758374,0.825078 0.02046,0.15073 -0.0085,0.368782 -0.0692,0.520288 -0.238722,0.596316 -0.986874,1.103986 -2.229884,1.51312 -1.389056,0.457204 -3.166434,0.745584 -5.358914,0.869484 -0.4973049,0.0281 -2.1672699,0.05258 -2.6099999,0.03825 z m -0.100677,-3.02964 c -1.183416,-0.06456 -2.212218,-0.327758 -2.651574,-0.67835 -0.229214,-0.182904 -0.302518,-0.312486 -0.305672,-0.540346 -0.0018,-0.12864 0.0067,-0.168512 0.05957,-0.28 0.164417,-0.34671 0.541302,-0.641584 1.008268,-0.788864 0.172369,-0.05436 0.48946,-0.110804 0.623731,-0.111018 l 0.07365,-2e-4 -0.06675,0.0992 c -0.09332,0.138678 -0.106829,0.23697 -0.04724,0.343796 0.121221,0.217306 0.522583,0.350894 1.255759,0.417966 0.344251,0.03149 1.453032,0.01352 1.870938,-0.03033 1.0090629,-0.105876 1.8499579,-0.279274 2.4325859,-0.501612 l 0.184083,-0.07025 0.101665,0.06661 c 0.05592,0.03664 0.418916,0.27242 0.806666,0.523968 0.38775,0.251546 0.705,0.462978 0.705,0.469846 0,0.0069 -0.09675,0.06329 -0.215,0.125378 -0.99323,0.521508 -2.437281,0.85522 -4.1306729,0.954568 -0.396326,0.02325 -1.274908,0.02303 -1.705004,-4.4e-4 z m 7.4023649,-2.582244 c 1.315494,-0.987456 2.201668,-2.121447 2.396328,-3.066452 0.122872,-0.596506 -0.01136,-1.021612 -0.438016,-1.387197 -0.149514,-0.128112 -0.468956,-0.290381 -0.68,-0.345424 -0.195006,-0.05086 -0.642312,-0.07251 -0.818386,-0.03961 -0.06511,0.01217 -0.12147,0.01904 -0.12524,0.01527 -0.01263,-0.01263 0.267192,-0.18936 0.427238,-0.269829 0.470422,-0.236524 0.92512,-0.340804 1.382528,-0.317069 0.706724,0.03667 1.243234,0.372155 1.53385,0.95913 0.31926,0.644826 0.298442,1.562769 -0.05249,2.314277 -0.499172,1.068972 -1.759946,1.878928 -3.467504,2.227618 -0.417204,0.0852 -0.403286,0.09317 -0.158312,-0.09072 z m -6.9116879,0.05016 c -0.483078,-0.0211 -0.961884,-0.05416 -1.28,-0.08838 -1.618185,-0.17406 -2.797672,-0.59187 -3.051534,-1.080944 -0.131475,-0.253296 0.08141,-0.642249 0.505418,-0.923454 0.387613,-0.257065 1.001055,-0.473836 1.34091,-0.473836 l 0.06955,0 -0.110841,0.110841 c -0.362981,0.362981 -0.140554,0.678655 0.616493,0.874943 0.598836,0.155266 1.2473,0.21634 2.3,0.21662 1.355019,3.6e-4 2.7935969,-0.184076 3.8419719,-0.492567 l 0.231345,-0.06807 0.756431,0.474119 c 0.495471,0.310552 0.7473,0.479324 0.72996,0.489206 -0.01456,0.0083 -0.146964,0.05943 -0.294233,0.113618 -1.084113,0.398922 -2.393208,0.676638 -3.725475,0.790332 -0.6561479,0.056 -1.4345839,0.07922 -1.9299999,0.05758 z m -1.94,-2.740441 c -0.673898,-0.01396 -1.821452,-0.114938 -2.35,-0.20679 -1.114533,-0.193685 -1.767884,-0.481621 -1.963205,-0.865197 -0.04255,-0.08356 -0.053,-0.131905 -0.05281,-0.244184 2.76e-4,-0.158851 0.0312,-0.24722 0.136918,-0.391234 0.429109,-0.584563 2.08338,-0.956257 4.489095,-1.008645 l 0.49,-0.01067 -0.29,0.07874 c -0.764591,0.207606 -1.423613,0.455322 -1.722348,0.647405 -0.145592,0.09362 -0.277652,0.242836 -0.277652,0.313734 0,0.137011 0.230853,0.219598 0.8157,0.291815 0.512132,0.06324 1.051815,0.09005 2.0543,0.102057 2.5284849,0.03029 5.4163889,-0.162274 7.1273739,-0.47524 0.180054,-0.03294 0.331198,-0.05606 0.335876,-0.05138 0.02041,0.02041 -0.563384,0.473614 -1.200534,0.931969 l -0.397273,0.285791 -0.432721,0.07848 c -2.133453,0.386958 -4.5012169,0.570192 -6.7627219,0.523351 z m 4.4619739,-1.881171 c 0.288672,-0.295183 0.44368,-0.508484 0.589069,-0.810596 0.127614,-0.265178 0.173941,-0.456727 0.175198,-0.724404 0.0013,-0.279062 -0.04432,-0.452187 -0.20559,-0.78 -0.118045,-0.239952 -0.154097,-0.297294 -0.622423,-0.99 C 9.9979211,9.6061125 9.8467411,9.0017115 10.03629,8.1141535 c 0.284106,-1.3303164 1.365997,-2.3529154 3.173264,-2.9993544 0.546524,-0.195486 1.154667,-0.352673 1.783371,-0.460948 0.303558,-0.05228 0.841786,-0.123642 0.854236,-0.113262 0.0023,0.0019 -0.26767,0.184566 -0.6,0.405829 -1.710408,1.138782 -2.816614,2.0985404 -3.228161,2.8007914 -0.239801,0.40919 -0.199312,0.921504 0.123652,1.564562 0.05082,0.101192 0.176838,0.335246 0.280037,0.520122 0.392711,0.7035185 0.505365,0.9762965 0.58249,1.4104225 0.119284,0.671432 -0.205595,1.459728 -0.822254,1.995139 -0.350858,0.304631 -0.813238,0.559315 -1.315113,0.724378 -0.151313,0.04977 -0.286125,0.09048 -0.299583,0.09048 -0.01346,0 0.05254,-0.07875 0.14667,-0.175 z M 9.4169811,13.244804 c -1.035638,-0.7747 -1.969968,-1.682163 -2.57718,-2.503072 -0.565463,-0.7644675 -0.88694,-1.5707255 -0.886849,-2.2242005 8.2e-5,-0.583592 0.237892,-1.145497 0.742844,-1.7552154 0.42446,-0.512525 0.878254,-0.92513 2.287129,-2.079539 0.790226,-0.647497 1.1300579,-0.946793 1.5200399,-1.338723 0.788582,-0.792519 1.155991,-1.398195 1.281001,-2.111738 0.05871,-0.33511203 0.01199,-0.80785903 -0.110557,-1.11877303 -0.02307,-0.05854 -0.03888,-0.109495 -0.03513,-0.11324499678 0.01227,-0.0122700032 0.2281,0.35712099678 0.34006,0.58201799678 0.733898,1.47419603 0.492191,2.85781203 -0.777562,4.45103203 -0.282109,0.353973 -0.513015,0.607509 -1.2558839,1.378968 -1.032593,1.0723324 -1.174179,1.2280364 -1.445821,1.5900004 -0.515941,0.687492 -0.693161,1.261246 -0.554662,1.795729 0.05678,0.2191185 0.433868,1.0976275 0.757289,1.7642705 0.252651,0.520767 0.497348,0.967866 0.823886,1.505366 0.138542,0.228049 0.255902,0.421384 0.260798,0.429634 0.02167,0.03651 -0.03286,-7.64e-4 -0.369402,-0.252512 z"
     id="path3400"
     inkscape:connector-curvature="0" />
</svg>
