<?xml version="1.0" encoding="UTF-8" standalone="no"?>
<!-- Created with Inkscape (http://www.inkscape.org/) -->

<svg
   xmlns:dc="http://purl.org/dc/elements/1.1/"
   xmlns:cc="http://creativecommons.org/ns#"
   xmlns:rdf="http://www.w3.org/1999/02/22-rdf-syntax-ns#"
   xmlns:svg="http://www.w3.org/2000/svg"
   xmlns="http://www.w3.org/2000/svg"
   xmlns:sodipodi="http://sodipodi.sourceforge.net/DTD/sodipodi-0.dtd"
   xmlns:inkscape="http://www.inkscape.org/namespaces/inkscape"
   version="1.1"
   id="svg4485"
   width="893.85284"
   height="504.59561"
   viewBox="0 0 893.85288 504.59561"
   sodipodi:docname="HackVT-logo.svg"
   inkscape:version="0.92.1 r15371">
  <metadata
     id="metadata4491">
    <rdf:RDF>
      <cc:Work
         rdf:about="">
        <dc:format>image/svg+xml</dc:format>
        <dc:type
           rdf:resource="http://purl.org/dc/dcmitype/StillImage" />
        <dc:title></dc:title>
      </cc:Work>
    </rdf:RDF>
  </metadata>
  <defs
     id="defs4489" />
  <sodipodi:namedview
     pagecolor="#ffffff"
     bordercolor="#666666"
     borderopacity="1"
     objecttolerance="10"
     gridtolerance="10"
     guidetolerance="10"
     inkscape:pageopacity="0"
     inkscape:pageshadow="2"
     inkscape:window-width="1528"
     inkscape:window-height="777"
     id="namedview4487"
     showgrid="false"
     inkscape:zoom="0.5"
     inkscape:cx="345.36385"
     inkscape:cy="285.14327"
     inkscape:window-x="1750"
     inkscape:window-y="128"
     inkscape:window-maximized="0"
     inkscape:current-layer="svg4485"
     fit-margin-top="0"
     fit-margin-left="0"
     fit-margin-right="0"
     fit-margin-bottom="0" />
  <path
     style="fill:#ffffff;stroke-width:1.33333325"
     d="M 0,252.2978 C 0,27.531142 0.15383,-64.418858 0.34185,47.964472 0.52987,160.3478 0.52987,344.2478 0.34185,456.63114 0.15383,569.01447 0,477.06447 0,252.2978 Z m 516.37208,84.59336 c -27.94333,-6.77372 -52.4365,-32.92473 -60.49844,-64.59336 -2.65065,-10.41216 -2.96553,-29.65993 -0.6653,-40.66666 2.31092,-11.05791 12.06817,-30.61311 19.42658,-38.93422 7.78604,-8.80468 23.2893,-19.20976 34.22958,-22.97333 10.87858,-3.74236 29.37947,-4.96836 42.24003,-2.79915 11.58514,1.95408 25.33431,8.48183 34.08046,16.1805 6.81458,5.99844 14.15688,15.85361 14.15688,19.00205 0,2.21312 -25.63514,20.85748 -28.67808,20.85748 -1.05606,0 -2.78432,-1.65 -3.84059,-3.66667 -2.52381,-4.81857 -9.65499,-11.44938 -15.47071,-14.38517 -6.09721,-3.07791 -20.79106,-4.1048 -27.48865,-1.92108 -17.03893,5.55549 -27.86994,22.21292 -29.45908,45.30625 -2.53673,36.86391 25.07536,63.0582 54.76267,51.95075 6.85153,-2.56348 8.94113,-4.38669 20.16581,-17.59505 1.83313,-2.1571 2.76995,-1.83738 14.06903,4.80145 6.65781,3.91184 13.64958,8.26553 15.53725,9.67488 l 3.43212,2.56245 -2.70761,5.30276 c -1.4892,2.91652 -6.34394,8.76954 -10.78832,13.0067 -17.87942,17.04581 -47.8731,24.86008 -72.50363,18.88942 z m -364.40359,-0.88992 c -0.3582,-0.93689 -0.49572,-39.20344 -0.3056,-85.03677 l 0.34566,-83.33333 h 19.33333 19.33333 l 0.35663,33 0.35663,33 h 33.28674 33.28675 l 0.35662,-33 0.35663,-33 h 49.33333 49.33333 l 0.42184,3.66601 c 0.33428,2.90519 -0.28833,3.93603 -3,4.967 -3.3556,1.2758 -3.42184,1.55656 -3.42184,14.50405 0,14.59392 -0.5455,15.71286 -8.00534,16.42067 -3.26903,0.31016 -5.04642,1.31967 -5.95058,3.37973 -0.96926,2.20844 -2.62384,3.03572 -6.66666,3.33334 l -5.37742,0.39586 -0.66666,11.33334 c -0.59698,10.14862 -0.98027,11.47092 -3.66667,12.6495 -2.68719,1.17894 -3,2.25984 -3,10.36634 0,8.42666 -0.22964,9.13748 -3.33333,10.31749 -2.69146,1.02329 -3.33334,2.17867 -3.33334,6 0,3.82133 -0.64188,4.97671 -3.33333,6 -3.27969,1.24693 -3.33333,1.50588 -3.33333,16.09183 0,13.61536 -0.21371,14.88037 -2.62011,15.50966 -2.3409,0.61216 -2.6606,2.05524 -3,13.54184 -0.3568,12.07524 -0.55733,12.88192 -3.29925,13.27218 -2.04357,0.29085 -3.04356,1.49082 -3.33333,4 l -0.41398,3.58449 -17,0.37317 -17,0.37316 V 303.00431 268.2978 h -33.31082 -33.31083 l -0.35584,34.33334 -0.35584,34.33333 -19.02773,0.37011 c -14.48663,0.28178 -19.18316,-0.0364 -19.67899,-1.33334 z m 265.51266,-12.03677 c -2.64961,-7.51667 -5.62504,-16.06667 -6.61205,-19 l -1.79457,-5.33333 -39.7021,-0.35344 -39.7021,-0.35343 0.87197,-6.31324 c 0.4796,-3.47227 1.90569,-10.51323 3.16912,-15.64656 l 2.29712,-9.33333 30.33333,-0.35836 c 16.68334,-0.19711 30.33334,-0.85394 30.33334,-1.45963 0,-0.60569 -7.19707,-22.04444 -15.9935,-47.64164 -8.79641,-25.5972 -15.99641,-47.59037 -16,-48.87371 -0.005,-2.1177 1.8222,-2.33333 19.78174,-2.33333 h 19.78822 l 29.54511,83.03703 c 16.2498,45.67036 29.54509,84.07036 29.54509,85.33333 0,2.07339 -1.99216,2.29631 -20.52161,2.29631 h -20.52163 z m 199.82066,12.03677 c -0.3582,-0.93689 -0.49572,-39.20344 -0.3056,-85.03677 l 0.34566,-83.33333 h 19.33333 19.33333 l 0.66667,31.20108 0.66666,31.20109 24.51288,-31.53443 24.51288,-31.53441 h 22.48712 c 18.07761,0 22.48712,0.3558 22.48712,1.81445 0,0.99795 -13.21401,19.37294 -29.36448,40.83331 l -29.36448,39.01887 3.17812,4.16668 c 1.74796,2.29168 16.45831,21.56669 32.68966,42.83336 16.23134,21.26666 29.51521,39.41666 29.51969,40.33333 0.007,1.26959 -5.50195,1.66667 -23.1197,1.66667 h -23.12785 l -27.20548,-36.00887 -27.20548,-36.00885 -0.66666,35.67552 -0.66667,35.67553 -19.02773,0.37011 c -14.48663,0.28178 -19.18316,-0.0364 -19.67899,-1.33334 z M 799.59346,226.60102 c -1.9604,-2.36215 -20.2516,-54.01479 -20.2516,-57.18864 0,-2.27923 0.82097,-2.53928 6.89559,-2.18426 l 6.8956,0.40302 7.39381,21.30366 7.3937,21.30366 6.4246,-19.89071 c 3.5336,-10.93989 7.0768,-20.67653 7.8739,-21.63699 1.6679,-2.00968 12.5736,-2.38028 13.7558,-0.46745 0.7394,1.19641 -16.2461,51.68211 -19.3211,57.42793 -1.1293,2.11002 -2.8066,2.62656 -8.5289,2.62656 -4.1394,0 -7.713,-0.71076 -8.5314,-1.69678 z m 63.3654,0.86936 c -0.5227,-0.5227 -0.9503,-11.35035 -0.9503,-24.06147 V 180.2978 h -8.0731 -8.073 l 0.4063,-6.33333 0.4064,-6.33333 21.8227,-0.36711 c 24.5307,-0.41267 25.8813,-0.007 25.2447,7.58632 l -0.4007,4.78079 -8.3028,0.39616 -8.3028,0.39617 -0.3639,23.60383 -0.3638,23.60384 -6.0497,0.3948 c -3.3273,0.21714 -6.4773,-0.0328 -7,-0.55556 z"
     id="path4503"
     inkscape:connector-curvature="0" />
</svg>
